<?xml version="1.0" encoding="utf-8"?>
<!-- Generator: Adobe Illustrator 23.0.5, SVG Export Plug-In . SVG Version: 6.00 Build 0)  -->
<svg version="1.1"
	 id="Layer_1" inkscape:version="0.91 r13725" sodipodi:docname="01_mega_logo.svg" xmlns:cc="http://creativecommons.org/ns#" xmlns:dc="http://purl.org/dc/elements/1.1/" xmlns:inkscape="http://www.inkscape.org/namespaces/inkscape" xmlns:rdf="http://www.w3.org/1999/02/22-rdf-syntax-ns#" xmlns:sodipodi="http://sodipodi.sourceforge.net/DTD/sodipodi-0.dtd" xmlns:svg="http://www.w3.org/2000/svg"
	 xmlns="http://www.w3.org/2000/svg" xmlns:xlink="http://www.w3.org/1999/xlink" x="0px" y="0px" viewBox="0 0 1471.2 361.4"
	 style="enable-background:new 0 0 1471.2 361.4;" xml:space="preserve">
<style type="text/css">
	.st0{fill:#D9272E;}
	.st1{fill:#2C2B2B;}
	.st2{fill:#C9C9C9;}
</style>
<sodipodi:namedview  bordercolor="#666666" borderopacity="1" fit-margin-bottom="0" fit-margin-left="0" fit-margin-right="0" fit-margin-top="0" gridtolerance="10" guidetolerance="10" id="namedview15" inkscape:current-layer="Layer_1" inkscape:cx="491.77096" inkscape:cy="180.74999" inkscape:pageopacity="0" inkscape:pageshadow="2" inkscape:window-height="648" inkscape:window-maximized="0" inkscape:window-width="1245" inkscape:window-x="0" inkscape:window-y="0" inkscape:zoom="0.28031832" objecttolerance="10" pagecolor="#ffffff" showgrid="false">
	</sodipodi:namedview>
<path id="path3" inkscape:connector-curvature="0" class="st0" d="M180.7,0C80.9,0,0,80.9,0,180.7s80.9,180.7,180.7,180.7
	s180.7-80.9,180.7-180.7S280.5,0,180.7,0z M274.5,244.6c0,3.1-2.5,5.6-5.6,5.6h-23.6c-3.1,0-5.6-2.5-5.6-5.6v-72.7
	c0-0.6-0.7-0.9-1.2-0.5l-50,50c-4.3,4.3-11.4,4.3-15.7,0l-50-50c-0.4-0.4-1.2-0.1-1.2,0.5v72.7c0,3.1-2.5,5.6-5.6,5.6H92.4
	c-3.1,0-5.6-2.5-5.6-5.6V116.8c0-3.1,2.5-5.6,5.6-5.6h16.2c2.9,0,5.8,1.2,7.9,3.3l62.2,62.2c1.1,1.1,2.8,1.1,3.9,0l62.2-62.2
	c2.1-2.1,4.9-3.3,7.9-3.3h16.2c3.1,0,5.6,2.5,5.6,5.6V244.6z"/>
<g id="g5" transform="translate(-41.1,-240.3)">
	<path id="path7" inkscape:connector-curvature="0" class="st1" d="M823.1,380v-19.5c0-3.1-2.5-5.6-5.6-5.6h-107
		c-3.1,0-5.6,2.5-5.6,5.6v127.9c0,3.1,2.5,5.6,5.6,5.6h107c3.1,0,5.6-2.5,5.6-5.6V469c0-3.1-2.5-5.6-5.6-5.6H741
		c-0.8,0-1.4-0.6-1.4-1.4v-22.2c0-0.8,0.6-1.4,1.4-1.4h76.5c3.1,0,5.6-2.5,5.6-5.6v-16.7c0-3.1-2.5-5.6-5.6-5.6H741
		c-0.8,0-1.4-0.6-1.4-1.4v-22.2c0-0.8,0.6-1.4,1.4-1.4h76.5C820.7,385.6,823.1,383.1,823.1,380L823.1,380z"/>
	<path id="path9" inkscape:connector-curvature="0" class="st1" d="M1120.6,494h24.3c3.1,0,5.1-3.2,3.8-6l-61.5-126.8
		c-1.9-3.8-5.7-6.3-10-6.3h-13.9c-4.3,0-8.1,2.4-10,6.3L991.8,488c-1.3,2.8,0.7,6,3.8,6h24.3c3.2,0,6.1-1.8,7.5-4.7l11.8-24.3
		c0.5-1,1.4-1.6,2.5-1.6h57.2c1.1,0,2,0.6,2.5,1.6l11.8,24.3C1114.5,492.2,1117.4,494,1120.6,494z M1052.9,436.4l16-33
		c0.5-1,2-1,2.5,0l16,33c0.4,0.9-0.2,2-1.3,2h-32C1053.2,438.4,1052.5,437.3,1052.9,436.4z"/>
	<path id="path11" inkscape:connector-curvature="0" class="st1" d="M647.4,358.2l-62.2,62.2c-1.1,1.1-2.8,1.1-3.9,0L519,358.2
		c-2.1-2.1-4.9-3.3-7.9-3.3h-16.2c-3.1,0-5.6,2.5-5.6,5.6v127.9c0,3.1,2.5,5.6,5.6,5.6h23.6c3.1,0,5.6-2.5,5.6-5.6v-72.7
		c0-0.6,0.7-0.9,1.2-0.5l50,50c4.3,4.3,11.4,4.3,15.7,0l50-50c0.4-0.4,1.2-0.1,1.2,0.5v72.7c0,3.1,2.5,5.6,5.6,5.6h23.6
		c3.1,0,5.6-2.5,5.6-5.6V360.5c0-3.1-2.5-5.6-5.6-5.6h-16.2C652.3,355,649.5,356.1,647.4,358.2L647.4,358.2z"/>
	<path id="path13" inkscape:connector-curvature="0" class="st1" d="M978.1,412h-54.9c-3.1,0-5.6,2.5-5.6,5.6v13.9
		c0,3.1,2.5,5.6,5.6,5.6h31.5c1,0,1.6,1,1.3,1.9c-6,15.9-21.6,27.2-39.8,26.6c-21.2-0.7-38.6-17.8-39.6-39
		c-1.1-23.5,17.7-42.9,41-42.9c9.5,0,18.3,3.3,25.3,8.7c2.2,1.7,5.4,1.6,7.4-0.4l14.8-14.8c2.3-2.3,2.1-6.1-0.4-8.2
		c-12.9-10.9-29.6-17.4-47.8-17.3c-40.1,0.3-72.7,33.5-72.3,73.7c0.4,40,32.9,72.3,73,72.3c40.3,0,73-32.7,73-73v-0.1
		C990.6,417.5,985,412,978.1,412z"/>
</g>
<path class="st2" d="M1376.1,144.5c30.6,30.7,30.2,79.9,0.2,110.1c-0.1,0.1-0.1,0.1-0.2,0.2l-34.5,34.5
	c-30.4,30.4-79.9,30.4-110.3,0c-30.4-30.4-30.4-79.9,0-110.3l19-19c5-5,13.7-1.7,14,5.4c0.3,9.1,2,18.2,5,27c1,3,0.3,6.3-1.9,8.5
	l-6.7,6.7c-14.4,14.4-14.8,37.8-0.6,52.3c14.4,14.7,38,14.7,52.5,0.3l34.5-34.5c14.5-14.5,14.4-37.8,0-52.2
	c-1.9-1.9-3.8-3.4-5.3-4.4c-2.1-1.5-3.5-3.9-3.6-6.5c-0.2-5.4,1.7-11,6-15.3l10.8-10.8c2.8-2.8,7.3-3.2,10.6-0.9
	C1369.4,138.3,1372.9,141.2,1376.1,144.5L1376.1,144.5z M1448.4,72.2c-30.4-30.4-79.9-30.4-110.3,0l-34.5,34.5
	c-0.1,0.1-0.1,0.1-0.2,0.2c-30,30.2-30.5,79.4,0.2,110.1c3.2,3.2,6.8,6.2,10.5,8.8c3.3,2.3,7.7,1.9,10.6-0.9l10.8-10.8
	c4.3-4.3,6.2-9.9,6-15.3c-0.1-2.6-1.4-5-3.6-6.5c-1.5-1-3.4-2.5-5.3-4.4c-14.4-14.4-14.5-37.8,0-52.2l34.5-34.5
	c14.5-14.5,38.1-14.4,52.5,0.3c14.2,14.5,13.8,37.9-0.6,52.3l-6.7,6.7c-2.2,2.2-3,5.5-1.9,8.5c3,8.8,4.6,18,5,27
	c0.3,7.1,9,10.5,14,5.4l19-19C1478.8,152,1478.8,102.6,1448.4,72.2L1448.4,72.2z"/>
</svg>
