<svg width="20" height="19" viewBox="0 0 20 19" fill="none" xmlns="http://www.w3.org/2000/svg">
<path d="M14.75 1.00005C13.7551 0.997604 12.7801 1.27842 11.9389 1.80968C11.0978 2.34093 10.4253 3.10066 9.99998 4.00005C9.49836 2.90979 8.6377 2.02475 7.56187 1.49288C6.48604 0.961018 5.26024 0.814565 4.08939 1.07801C2.91854 1.34145 1.8736 1.99882 1.12925 2.94022C0.384907 3.88163 -0.0137322 5.05001 -2.41198e-05 6.25005C-2.41198e-05 11.7501 9.99998 19.0001 9.99998 19.0001C9.99998 19.0001 20 11.7501 20 6.25005C20 4.85767 19.4469 3.52231 18.4623 2.53774C17.4777 1.55318 16.1424 1.00005 14.75 1.00005V1.00005Z" fill="#FF0000"/>
</svg>