<svg width="13" height="15" viewBox="0 0 13 15" fill="none" xmlns="http://www.w3.org/2000/svg">
<path d="M1 7.34933C1 6.24528 1 5.69325 1.22318 5.20802C1.44635 4.72278 1.86548 4.36353 2.70374 3.64502L3.51688 2.94804C5.03203 1.64935 5.7896 1 6.692 1C7.59441 1 8.35198 1.64935 9.86712 2.94804L10.6803 3.64502C11.5185 4.36353 11.9377 4.72278 12.1608 5.20802C12.384 5.69325 12.384 6.24528 12.384 7.34933V10.7974C12.384 12.3307 12.384 13.0973 11.9077 13.5736C11.4313 14.05 10.2581 14.05 8.72486 14.05V9.57771H4.65915V14.05C3.12587 14.05 1.95266 14.05 1.47633 13.5736C1 13.0973 1 12.3307 1 10.7974V7.34933Z" fill="#162930"/>
<path d="M1 7.34939C1 6.24534 1 5.69331 1.22318 5.20808C1.44635 4.72284 1.86548 4.36359 2.70374 3.64508L3.51688 2.9481C5.03203 1.64941 5.7896 1.00006 6.692 1.00006C7.59441 1.00006 8.35198 1.64941 9.86712 2.9481L10.6803 3.64508C11.5185 4.36359 11.9377 4.72284 12.1608 5.20808C12.384 5.69331 12.384 6.24534 12.384 7.34939V10.7974C12.384 12.3307 12.384 13.0974 11.9077 13.5737C11.4314 14.05 10.6647 14.05 9.13143 14.05H4.25257C2.7193 14.05 1.95266 14.05 1.47633 13.5737C1 13.0974 1 12.3307 1 10.7974V7.34939Z" stroke="#8C9D9D"/>
<path d="M8.72487 14.05V10.1712C8.72487 9.61889 8.27715 9.17117 7.72487 9.17117H5.65915C5.10686 9.17117 4.65915 9.61889 4.65915 10.1712V14.05" stroke="#8C9D9D" stroke-linecap="round" stroke-linejoin="round"/>
</svg>