<svg id="ewOSip6vmyj1" xmlns="http://www.w3.org/2000/svg" xmlns:xlink="http://www.w3.org/1999/xlink" viewBox="0 0 27 68" shape-rendering="geometricPrecision" text-rendering="geometricPrecision"><style><![CDATA[#ewOSip6vmyj2_to {animation: ewOSip6vmyj2_to__to 6000ms linear infinite normal forwards}@keyframes ewOSip6vmyj2_to__to { 0% {transform: translate(13.5px,42.103828px)} 6.666667% {transform: translate(13.5px,46.477339px)} 13.333333% {transform: translate(13.500022px,42.103828px)} 20% {transform: translate(13.500022px,42.103828px)} 100% {transform: translate(13.500022px,42.103828px)}} #ewOSip6vmyj6_to {animation: ewOSip6vmyj6_to__to 6000ms linear infinite normal forwards}@keyframes ewOSip6vmyj6_to__to { 0% {transform: translate(13.5px,53.084328px)} 6.666667% {transform: translate(13.5px,57.457839px)} 13.333333% {transform: translate(13.500022px,53.084328px)} 20% {transform: translate(13.500022px,53.084328px)} 100% {transform: translate(13.500022px,53.084328px)}}]]></style><g id="ewOSip6vmyj2_to" transform="translate(13.5,42.103828)"><g transform="translate(-13.71867,-46.856262)" mask="url(#ewOSip6vmyj4)"><path d="M3.39394,46.4805L13.7187,36.3141L3.39394,46.4805ZM21.9057,44.3757c1.9677,1.9374,1.9677,5.0787,0,7.0162l-4.6243,4.5534c-1.9677,1.9375-5.1578,1.9375-7.1255,0l2.8502-2.8065c.3935.3875,1.0316.3875,1.4251,0l6.0494-5.9566c1.1806-1.1625,1.8187-2.419,1.4251-2.8065ZM17.2814,55.9453c-1.9677,1.9375-5.1578,1.9375-7.1255,0L5.53159,51.3919c-1.96765-1.9375-1.96765-5.0788,0-7.0162-.39353.3875.2445,1.644,1.42509,2.8065l6.04942,5.9566c.3935.3875,1.0316.3875,1.4251,0l2.8502,2.8065ZM13.7187,36.3141L24.0434,46.4805L13.7187,36.3141Z" transform="translate(-.000045 0.438336)" fill="#8c9d9d"/><mask id="ewOSip6vmyj4" mask-type="luminance"><path d="M5.53159,48.5854c-1.18059-1.1625-1.18059-3.0473,0-4.2097L11.581,38.419c1.1806-1.1625,3.0947-1.1625,4.2753,0l6.0494,5.9567c1.1806,1.1624,1.1806,3.0472,0,4.2097l-6.0494,5.9567c-1.1806,1.1624-3.0947,1.1624-4.2753,0L5.53159,48.5854Z" transform="translate(0 0.000001)" fill="#fff"/></mask></g></g><g id="ewOSip6vmyj6_to" transform="translate(13.5,53.084328)"><g transform="translate(-13.71867,-57.836761)" mask="url(#ewOSip6vmyj8)"><path d="M3.39394,57.461L13.7187,47.2946L3.39394,57.461ZM21.9057,55.3562c1.9677,1.9375,1.9677,5.0787,0,7.0162l-4.6243,4.5534c-1.9677,1.9375-5.1578,1.9375-7.1255,0l2.8502-2.8065c.3935.3875,1.0316.3875,1.4251,0l6.0494-5.9566c1.1806-1.1625,1.8187-2.419,1.4251-2.8065ZM17.2814,66.9258c-1.9677,1.9375-5.1578,1.9375-7.1255,0L5.53159,62.3724c-1.96765-1.9375-1.96765-5.0787,0-7.0162-.39353.3875.2445,1.644,1.42509,2.8065l6.04942,5.9566c.3935.3875,1.0316.3875,1.4251,0l2.8502,2.8065ZM13.7187,47.2946L24.0434,57.461L13.7187,47.2946Z" fill="#8c9d9d"/><mask id="ewOSip6vmyj8" mask-type="luminance"><path d="M5.53159,59.5659c-1.18059-1.1625-1.18059-3.0472,0-4.2097L11.581,49.3995c1.1806-1.1625,3.0947-1.1625,4.2753,0l6.0494,5.9567c1.1806,1.1625,1.1806,3.0472,0,4.2097l-6.0494,5.9567c-1.1806,1.1625-3.0947,1.1625-4.2753,0L5.53159,59.5659Z" fill="#fff"/></mask></g></g><rect width="23" height="34.3141" rx="11.5" ry="11.5" transform="translate(2 2)" fill="none" stroke="#8c9d9d" stroke-width="3"/><rect width="2.09091" height="8.92167" rx="1.04545" ry="1.04545" transform="translate(12.4545 8.86282)" fill="#8c9d9d"/></svg>