<svg width="51" height="51" viewBox="0 0 51 51" fill="none" xmlns="http://www.w3.org/2000/svg">
<g clip-path="url(#clip0_23_104)">
<circle cx="19.7704" cy="14.0997" r="2.22694" transform="rotate(18.56 19.7704 14.0997)" fill="#162930"/>
<circle cx="22.6057" cy="5.65527" r="2.22694" transform="rotate(18.56 22.6057 5.65527)" fill="#162930"/>
<circle cx="19.7089" cy="42.2684" r="2.22694" transform="rotate(18.56 19.7089 42.2684)" fill="#162930"/>
<circle cx="22.5442" cy="33.824" r="2.22694" transform="rotate(18.56 22.5442 33.824)" fill="#162930"/>
<circle cx="25.3795" cy="25.3795" r="2.22694" transform="rotate(18.56 25.3795 25.3795)" fill="#162930"/>
<circle cx="28.2149" cy="16.9351" r="2.22694" transform="rotate(18.56 28.2149 16.9351)" fill="#162930"/>
<circle cx="31.0502" cy="8.4906" r="2.22694" transform="rotate(18.56 31.0502 8.4906)" fill="#162930"/>
<circle cx="28.1534" cy="45.1038" r="2.22694" transform="rotate(18.56 28.1534 45.1038)" fill="#162930"/>
<circle cx="30.9887" cy="36.6593" r="2.22694" transform="rotate(18.56 30.9887 36.6593)" fill="#162930"/>
<circle cx="33.824" cy="28.2148" r="2.22694" transform="rotate(18.56 33.824 28.2148)" fill="#162930"/>
<circle cx="36.6593" cy="19.7704" r="2.22694" transform="rotate(18.56 36.6593 19.7704)" fill="#162930"/>
<circle cx="39.4946" cy="11.3259" r="2.22694" transform="rotate(18.56 39.4946 11.3259)" fill="#162930"/>
<circle cx="36.5979" cy="47.9391" r="2.22694" transform="rotate(18.56 36.5979 47.9391)" fill="#162930"/>
<circle cx="39.4332" cy="39.4946" r="2.22694" transform="rotate(18.56 39.4332 39.4946)" fill="#162930"/>
<circle cx="42.2685" cy="31.05" r="2.22694" transform="rotate(18.56 42.2685 31.05)" fill="#162930"/>
<circle cx="45.1038" cy="22.6057" r="2.22694" transform="rotate(18.56 45.1038 22.6057)" fill="#162930"/>
<circle cx="47.9391" cy="14.1613" r="2.22694" transform="rotate(18.56 47.9391 14.1613)" fill="#162930"/>
</g>
<defs>
<clipPath id="clip0_23_104">
<rect x="12.7589" width="40.0849" height="40.0849" rx="20.0425" transform="rotate(18.56 12.7589 0)" fill="white"/>
</clipPath>
</defs>
</svg>