<svg width="15" height="15" viewBox="0 0 15 15" fill="none" xmlns="http://www.w3.org/2000/svg">
<path d="M1 5C1 3.11438 1 2.17157 1.58579 1.58579C2.17157 1 3.11438 1 5 1H10C11.8856 1 12.8284 1 13.4142 1.58579C14 2.17157 14 3.11438 14 5V10C14 11.8856 14 12.8284 13.4142 13.4142C12.8284 14 11.8856 14 10 14H5C3.11438 14 2.17157 14 1.58579 13.4142C1 12.8284 1 11.8856 1 10V5Z" fill="#162930" stroke="#8C9D9D" stroke-width="1.5"/>
<path fill-rule="evenodd" clip-rule="evenodd" d="M11.8333 6.05555H8.30984C7.6163 6.05555 7.26953 6.05555 6.95141 5.94533C6.87687 5.9195 6.80392 5.88928 6.73294 5.85483C6.43005 5.70783 6.18485 5.46263 5.69444 4.97222C5.20404 4.48181 4.95883 4.23661 4.65595 4.08961C4.58497 4.05516 4.51202 4.02494 4.43747 3.99911C4.11936 3.88889 3.77259 3.88889 3.07905 3.88889H1V10C1 11.8856 1 12.8284 1.58579 13.4142C2.17157 14 3.11438 14 5 14H10C11.8856 14 12.8284 14 13.4142 13.4142C14 12.8284 14 11.8856 14 10V3.88889C14 4.04365 14 4.12103 13.9957 4.18636C13.9301 5.18787 13.1323 5.98563 12.1308 6.05127C12.0655 6.05555 11.9881 6.05555 11.8333 6.05555ZM3.88889 9.63889C3.47468 9.63889 3.13889 9.97467 3.13889 10.3889C3.13889 10.8031 3.47468 11.1389 3.88889 11.1389H9.66667C10.0809 11.1389 10.4167 10.8031 10.4167 10.3889C10.4167 9.97467 10.0809 9.63889 9.66667 9.63889H3.88889Z" fill="#8C9D9D"/>
</svg>