<svg xmlns="http://www.w3.org/2000/svg" xmlns:xlink="http://www.w3.org/1999/xlink" viewBox="0 0 399 345"><defs><linearGradient id="b5d2d283-d788-481d-b15c-466fda4d2f60" x1="17" y1="164" x2="384" y2="164" gradientUnits="userSpaceOnUse"><stop offset="0" stop-color="#f5482b"/><stop offset="1" stop-color="#f9c51e"/></linearGradient><linearGradient id="b822ac11-575b-4b8c-b655-326cb1e409b2" x1="69.85" y1="133.46" x2="321.83" y2="231.61" gradientUnits="userSpaceOnUse"><stop offset="0.25" stop-color="#282828"/><stop offset="1" stop-color="#8c2d4f"/></linearGradient><clipPath id="e78a6046-9f99-4241-b77c-5efe0dc29544" transform="translate(-101 -124)"><polygon points="404.5 427.01 476 300 395 161 232 152 125 305 242.14 469 404.5 427.01" style="fill:none"/></clipPath></defs><title>Project Zeta</title><g id="a83fbf54-55b6-4c40-ad0f-71d29766857d" data-name="Fond"><polygon points="337.13 254.46 384 102 300 87 283 0 164 45 40 72 17 234 139.68 303 279 328 294 252 337.13 254.46" style="fill:url(#b5d2d283-d788-481d-b15c-466fda4d2f60)"/><polyline points="131 28 0 176 141 345 131 28" style="fill:#be0a0e"/><g id="abb157e0-b4af-4af3-a25c-7f6cfa54278e" data-name="Calque 8"><polyline points="131 28 0 176 24 181 131 28" style="fill:#fff;opacity:0.11"/></g><polyline points="294 37 399 176 313.2 284.8 294 37" style="fill:#d82526"/><polyline points="375 176 399 176 313.2 284.8 375 176" style="fill:#4d4d4d;opacity:0.24"/></g><g id="f0f818be-1155-4716-bfa1-492546935c94" data-name="Logo simple"><polygon id="e3507efa-a481-4e11-97eb-ce4699896c65" data-name="Fond" points="303.5 303.01 375 176 294 37 131 28 24 181 141.14 345 303.5 303.01" style="fill:url(#b822ac11-575b-4b8c-b655-326cb1e409b2)"/><g id="ee234de4-ddc3-4721-97fb-1e17d8417dbc" data-name="Serveur"><g style="clip-path:url(#e78a6046-9f99-4241-b77c-5efe0dc29544)"><path d="M191.62,446.43,330.08,212.19H214.82V174.7H398L260.85,406.89H399.68v39.54Z" transform="translate(-101 -124)" style="fill:#ededee"/><path d="M405.38,452.12H181.64L320.1,217.88h-111V169H408L270.83,401.2H405.38ZM201.6,440.73H394V412.59H250.87L388,180.39H220.51v26.1H340.06Z" transform="translate(-101 -124)" style="fill:#ededee"/></g></g></g><g id="a09d7bb0-24cf-4b2c-9478-11f6863ee27d" data-name="Ombrage"><g id="f1f3936e-4780-482c-a57d-d2af9ac90472" data-name="Calque 4"><polygon points="24 181 304 303 375 176 24 181" style="fill:#666;opacity:0.14"/><polygon points="141 345 24 181 304 303 141 345" style="fill:#666;opacity:0.35000000000000003"/></g><g id="b31d39e5-37a3-49ea-9b66-8c8eb001532d" data-name="Calque 3"><polygon points="375 176 24 181 131 28 375 176" style="fill:#fff;opacity:0.04"/></g><g id="eeb6e3a0-6292-467c-852f-c0e3f5511de0" data-name="Calque 2"><polygon points="375 176 131 28 294 37 375 176" style="fill:#fff;opacity:0.15"/></g></g></svg>